<svg xmlns="http://www.w3.org/2000/svg" viewBox="0 0 179.46 159.72"><defs><style>.cls-1{fill:#505050;}.cls-2{fill:#fff;}</style></defs><title>heart_1</title><g id="Capa_2" data-name="Capa 2"><g id="Capa_2-2" data-name="Capa 2"><path class="cls-1" d="M89.67,18.78s40.85-45.27,82.72,4.77c0,0,20.43,27.57-8.17,64.68,0,0-35.06,45.28-74.55,71.49,0,0-70.13-59.24-76.59-73.53s-25.88-40.86,0-69.79S81.16,3.46,89.67,18.78Z"/><path class="cls-2" d="M89.71,52.79s12.33-15.6,25,1.64c0,0,6.16,9.5-2.47,22.28,0,0-10.58,15.6-22.5,24.62,0,0-21.16-20.4-23.11-25.32s-7.81-14.07,0-24S87.14,47.51,89.71,52.79Z"/></g></g></svg>