<svg xmlns="http://www.w3.org/2000/svg" viewBox="0 0 182.03 173.85"><defs><style>.cls-1{fill:#1d1d1b;stroke:#1d1d1b;stroke-miterlimit:10;}</style></defs><title>twiter</title><g id="Capa_2" data-name="Capa 2"><g id="Capa_2-2" data-name="Capa 2"><path class="cls-1" d="M15.28,8.91S37.82,49.24,90.46,53.83a44.61,44.61,0,0,1,1.08-24.44C95.93,16,107.06,3.68,115,2.22s22.08-6.48,37.55,12.12c0,0,19.62-6.89,23-10.45,0,0-.75,10.82-14.9,23.28a49.43,49.43,0,0,0,20-6.14S172,35.24,162.53,43.8c0,0,1.7,39.08-15.66,71.26,0,0-19.62,40.95-58.11,53.07,0,0-37.72,18.6-86.31-14.42,0,0,26.13,5.85,53.86-18.18,0,0-24.15-.2-34-30.5,0,0,10.19,1.67,15.85-.42,0,0-28.11-6.9-28.68-43.67,0,0,11.51,6.89,15.85,5.43C25.37,66.37-.29,43.8,15.28,8.91Z"/></g></g></svg>